<?xml version="1.0" encoding="UTF-8" standalone="no"?>
<!DOCTYPE svg PUBLIC "-//W3C//DTD SVG 1.1//EN"
 "http://www.w3.org/Graphics/SVG/1.1/DTD/svg11.dtd">
<!-- Generated by graphviz version 12.2.1 (20241206.2353)
 -->
<!-- Title: Big5LoopArchitecture Pages: 1 -->
<svg width="2250pt" height="1945pt"
 viewBox="0.00 0.00 540.00 466.92" xmlns="http://www.w3.org/2000/svg" xmlns:xlink="http://www.w3.org/1999/xlink">
<g id="graph0" class="graph" transform="scale(1.79804 1.79804) rotate(0) translate(36 1046)">
<title>Big5LoopArchitecture</title>
<polygon fill="white" stroke="none" points="-36,36 -36,-1046 1215.36,-1046 1215.36,36 -36,36"/>
<!-- client&#45;&gt;api_pre -->
<g id="edge1" class="edge">
<title>client&#45;&gt;api_pre</title>
<path fill="none" stroke="#4a5a63" stroke-width="2" d="M322.36,-942.38C322.36,-942.38 322.36,-896.23 322.36,-896.23"/>
<polygon fill="#4a5a63" stroke="#4a5a63" stroke-width="2" points="322.36,-886.23 326.86,-896.23 322.86,-888.79 322.86,-896.23 322.36,-896.23 321.86,-896.23 321.86,-888.79 317.86,-896.23 322.36,-886.23"/>
</g>
<!-- api_pre&#45;&gt;pipeline -->
<g id="edge2" class="edge">
<title>api_pre&#45;&gt;pipeline:p12</title>
<path fill="none" stroke="#4a5a63" stroke-width="2" d="M322.36,-743.57C322.36,-743.57 322.36,-645.38 322.36,-645.38"/>
<polygon fill="#4a5a63" stroke="#4a5a63" stroke-width="2" points="322.36,-635.38 326.86,-645.38 322.86,-637.94 322.86,-645.38 322.36,-645.38 321.86,-645.38 321.86,-637.94 317.86,-645.38 322.36,-635.38"/>
</g>
<!-- pipeline&#45;&gt;db -->
<g id="edge5" class="edge">
<title>pipeline:persist&#45;&gt;db</title>
<path fill="none" stroke="#7a9a8a" stroke-width="1.8" stroke-dasharray="5,2" d="M343.9,-409.76C343.9,-342.27 343.9,-139 343.9,-139 343.9,-139 489.4,-139 489.4,-139"/>
<polygon fill="#7a9a8a" stroke="#7a9a8a" stroke-width="1.8" points="499.4,-139 489.4,-143.5 496.6,-139.4 489.4,-139.4 489.4,-139 489.4,-138.6 496.6,-138.6 489.4,-134.5 499.4,-139"/>
</g>
<!-- pipeline&#45;&gt;llm -->
<g id="edge6" class="edge">
<title>pipeline:p32&#45;&gt;llm</title>
<path fill="none" stroke="#7a8a9a" stroke-width="1.8" d="M289.44,-453.04C289.44,-453.04 289.44,-139.17 289.44,-139.17"/>
<polygon fill="#7a8a9a" stroke="#7a8a9a" stroke-width="1.8" points="289.44,-129.17 293.94,-139.17 289.84,-131.98 289.84,-139.17 289.44,-139.17 289.04,-139.17 289.04,-131.98 284.94,-139.17 289.44,-129.17"/>
</g>
<!-- pipeline&#45;&gt;api_post -->
<g id="edge3" class="edge">
<title>pipeline:exit&#45;&gt;api_post</title>
<path fill="none" stroke="#4a5a63" stroke-width="2" d="M499.17,-453.37C499.17,-453.37 499.17,-361.86 499.17,-361.86"/>
<polygon fill="#4a5a63" stroke="#4a5a63" stroke-width="2" points="499.17,-351.86 503.67,-361.86 499.67,-354.42 499.67,-361.86 499.17,-361.86 498.67,-361.86 498.67,-354.42 494.67,-361.86 499.17,-351.86"/>
</g>
<!-- api_post&#45;&gt;db -->
<!-- api_post&#45;&gt;llm -->
<!-- api_post&#45;&gt;client_response -->
<g id="edge4" class="edge">
<title>api_post&#45;&gt;client_response</title>
<path fill="none" stroke="#4a5a63" stroke-width="2" d="M788.86,-209.13C788.86,-209.13 788.86,-115.7 788.86,-115.7"/>
<polygon fill="#4a5a63" stroke="#4a5a63" stroke-width="2" points="788.86,-105.7 793.36,-115.7 789.36,-108.26 789.36,-115.7 788.86,-115.7 788.36,-115.7 788.36,-108.26 784.36,-115.7 788.86,-105.7"/>
</g>
<!-- spine_top -->
<!-- spine_mid -->
<!-- spine_bot -->
<!-- client -->
<g id="node4" class="node">
<title>client</title>
<path fill="#eef3f6" stroke="none" d="M123.36,-943C123.36,-943 521.36,-943 521.36,-943 527.36,-943 533.36,-949 533.36,-955 533.36,-955 533.36,-997 533.36,-997 533.36,-1003 527.36,-1009 521.36,-1009 521.36,-1009 123.36,-1009 123.36,-1009 117.36,-1009 111.36,-1003 111.36,-997 111.36,-997 111.36,-955 111.36,-955 111.36,-949 117.36,-943 123.36,-943"/>
<text text-anchor="start" x="249.61" y="-976" font-family="Helvetica Neue,Arial,Helvetica,sans-serif" font-size="16.00"> &#160;&#160;&#160;&#160;&#160;&#160;&#160;&#160;&#160;</text>
<text text-anchor="start" x="294.61" y="-976" font-family="Helvetica Neue,Arial,Helvetica,sans-serif" font-weight="bold" font-size="20.00">Client</text>
<text text-anchor="start" x="350.11" y="-976" font-family="Helvetica Neue,Arial,Helvetica,sans-serif" font-size="16.00"> &#160;&#160;&#160;&#160;&#160;&#160;&#160;&#160;&#160;</text>
<text text-anchor="start" x="275.11" y="-959.8" font-family="Helvetica Neue,Arial,Helvetica,sans-serif" font-size="16.00">(Next.js)</text>
<text text-anchor="start" x="333.61" y="-959.8" font-family="Helvetica Neue,Arial,Helvetica,sans-serif" font-size="16.00"> &#160;&#160;&#160;&#160;&#160;&#160;&#160;</text>
<path fill="none" stroke="#7b8c97" stroke-width="2" d="M123.36,-943C123.36,-943 521.36,-943 521.36,-943 527.36,-943 533.36,-949 533.36,-955 533.36,-955 533.36,-997 533.36,-997 533.36,-1003 527.36,-1009 521.36,-1009 521.36,-1009 123.36,-1009 123.36,-1009 117.36,-1009 111.36,-1003 111.36,-997 111.36,-997 111.36,-955 111.36,-955 111.36,-949 117.36,-943 123.36,-943"/>
</g>
<!-- api_pre -->
<g id="node5" class="node">
<title>api_pre</title>
<path fill="#f7f9fa" stroke="none" d="M114.36,-744.5C114.36,-744.5 530.36,-744.5 530.36,-744.5 536.36,-744.5 542.36,-750.5 542.36,-756.5 542.36,-756.5 542.36,-871 542.36,-871 542.36,-877 536.36,-883 530.36,-883 530.36,-883 114.36,-883 114.36,-883 108.36,-883 102.36,-877 102.36,-871 102.36,-871 102.36,-756.5 102.36,-756.5 102.36,-750.5 108.36,-744.5 114.36,-744.5"/>
<polygon fill="#3d5060" stroke="none" points="103.36,-833.5 103.36,-882 541.36,-882 541.36,-833.5 103.36,-833.5"/>
<text text-anchor="start" x="198.61" y="-852.9" font-family="Helvetica Neue,Arial,Helvetica,sans-serif" font-size="16.00"> &#160;&#160;&#160;&#160;&#160;&#160;&#160;&#160;&#160;</text>
<text text-anchor="start" x="243.61" y="-852.9" font-family="Helvetica Neue,Arial,Helvetica,sans-serif" font-weight="bold" font-size="18.00" fill="white">API Pre&#45;processing</text>
<text text-anchor="start" x="410.11" y="-852.9" font-family="Helvetica Neue,Arial,Helvetica,sans-serif" font-size="16.00"> &#160;&#160;&#160;&#160;&#160;&#160;&#160;</text>
<text text-anchor="start" x="115.36" y="-807.3" font-family="Helvetica Neue,Arial,Helvetica,sans-serif" font-size="16.00"> &#160;&#160;&#160;&#160;&#160;&#160;&#160;&#160;&#160;</text>
<text text-anchor="start" x="160.36" y="-807.3" font-family="Helvetica Neue,Arial,Helvetica,sans-serif" font-size="15.00">Router                                                                        </text>
<text text-anchor="start" x="252.24" y="-791.3" font-family="Helvetica Neue,Arial,Helvetica,sans-serif" font-size="16.00"> &#160;&#160;&#160;&#160;&#160;&#160;&#160;&#160;&#160;</text>
<text text-anchor="start" x="297.24" y="-791.3" font-family="Helvetica Neue,Arial,Helvetica,sans-serif" font-size="15.00">Retrieval Gate</text>
<text text-anchor="start" x="243.99" y="-775.3" font-family="Helvetica Neue,Arial,Helvetica,sans-serif" font-size="16.00"> &#160;&#160;&#160;&#160;&#160;&#160;&#160;&#160;&#160;</text>
<text text-anchor="start" x="288.99" y="-775.3" font-family="Helvetica Neue,Arial,Helvetica,sans-serif" font-size="15.00">Session Isolation</text>
<text text-anchor="start" x="235.36" y="-759.3" font-family="Helvetica Neue,Arial,Helvetica,sans-serif" font-size="16.00"> &#160;&#160;&#160;&#160;&#160;&#160;&#160;&#160;&#160;</text>
<text text-anchor="start" x="280.36" y="-759.3" font-family="Helvetica Neue,Arial,Helvetica,sans-serif" font-size="15.00">Intent Routing</text>
<text text-anchor="start" x="373.36" y="-759.3" font-family="Helvetica Neue,Arial,Helvetica,sans-serif" font-size="16.00"> &#160;&#160;&#160;&#160;&#160;&#160;&#160;</text>
<path fill="none" stroke="#4a5a63" stroke-width="2" d="M114.36,-744.5C114.36,-744.5 530.36,-744.5 530.36,-744.5 536.36,-744.5 542.36,-750.5 542.36,-756.5 542.36,-756.5 542.36,-871 542.36,-871 542.36,-877 536.36,-883 530.36,-883 530.36,-883 114.36,-883 114.36,-883 108.36,-883 102.36,-877 102.36,-871 102.36,-871 102.36,-756.5 102.36,-756.5 102.36,-750.5 108.36,-744.5 114.36,-744.5"/>
</g>
<!-- pipeline -->
<g id="node6" class="node">
<title>pipeline</title>
<path fill="#e8f3ec" stroke="none" d="M99.74,-408.5C99.74,-408.5 586.99,-408.5 586.99,-408.5 592.99,-408.5 598.99,-414.5 598.99,-420.5 598.99,-420.5 598.99,-672.5 598.99,-672.5 598.99,-678.5 592.99,-684.5 586.99,-684.5 586.99,-684.5 99.74,-684.5 99.74,-684.5 93.74,-684.5 87.74,-678.5 87.74,-672.5 87.74,-672.5 87.74,-420.5 87.74,-420.5 87.74,-414.5 93.74,-408.5 99.74,-408.5"/>
<polygon fill="#3d5060" stroke="none" points="88.74,-633 88.74,-683.5 597.99,-683.5 597.99,-633 88.74,-633"/>
<text text-anchor="start" x="167.49" y="-653.4" font-family="Helvetica Neue,Arial,Helvetica,sans-serif" font-size="16.00"> &#160;&#160;&#160;&#160;&#160;&#160;&#160;&#160;&#160;</text>
<text text-anchor="start" x="212.49" y="-653.4" font-family="Helvetica Neue,Arial,Helvetica,sans-serif" font-weight="bold" font-size="18.00" fill="white">N8N 9&#45;Stage Coaching Pipeline</text>
<text text-anchor="start" x="483.24" y="-653.4" font-family="Helvetica Neue,Arial,Helvetica,sans-serif" font-size="16.00"> &#160;&#160;&#160;&#160;&#160;&#160;&#160;</text>
<polygon fill="#f4faf6" stroke="none" points="88.74,-573 88.74,-633 243.49,-633 243.49,-573 88.74,-573"/>
<polygon fill="none" stroke="#3d6b52" points="88.74,-573 88.74,-633 243.49,-633 243.49,-573 88.74,-573"/>
<text text-anchor="start" x="118.11" y="-604.8" font-family="Helvetica Neue,Arial,Helvetica,sans-serif" font-size="16.00"> &#160;&#160;&#160;&#160;&#160;&#160;&#160;&#160;&#160;</text>
<text text-anchor="start" x="163.11" y="-604.8" font-family="Helvetica Neue,Arial,Helvetica,sans-serif" font-weight="bold" font-size="15.00">1.</text>
<text text-anchor="start" x="175.86" y="-604.8" font-family="Helvetica Neue,Arial,Helvetica,sans-serif" font-size="15.00"> Input</text>
<text text-anchor="start" x="102.74" y="-588.8" font-family="Helvetica Neue,Arial,Helvetica,sans-serif" font-size="15.00">Normalization</text>
<text text-anchor="start" x="193.49" y="-588.8" font-family="Helvetica Neue,Arial,Helvetica,sans-serif" font-size="16.00"> &#160;&#160;&#160;&#160;&#160;&#160;&#160;</text>
<polygon fill="#f4faf6" stroke="none" points="243.49,-573 243.49,-633 401.24,-633 401.24,-573 243.49,-573"/>
<polygon fill="none" stroke="#3d6b52" points="243.49,-573 243.49,-633 401.24,-633 401.24,-573 243.49,-573"/>
<text text-anchor="start" x="265.36" y="-604.8" font-family="Helvetica Neue,Arial,Helvetica,sans-serif" font-size="16.00"> &#160;&#160;&#160;&#160;&#160;&#160;&#160;&#160;&#160;</text>
<text text-anchor="start" x="310.36" y="-604.8" font-family="Helvetica Neue,Arial,Helvetica,sans-serif" font-weight="bold" font-size="15.00">2.</text>
<text text-anchor="start" x="323.11" y="-604.8" font-family="Helvetica Neue,Arial,Helvetica,sans-serif" font-size="15.00"> Context</text>
<text text-anchor="start" x="270.99" y="-588.8" font-family="Helvetica Neue,Arial,Helvetica,sans-serif" font-size="15.00">Extraction</text>
<text text-anchor="start" x="337.74" y="-588.8" font-family="Helvetica Neue,Arial,Helvetica,sans-serif" font-size="16.00"> &#160;&#160;&#160;&#160;&#160;&#160;&#160;</text>
<polygon fill="#f4faf6" stroke="none" points="401.24,-573 401.24,-633 597.99,-633 597.99,-573 401.24,-573"/>
<polygon fill="none" stroke="#3d6b52" points="401.24,-573 401.24,-633 597.99,-633 597.99,-573 401.24,-573"/>
<text text-anchor="start" x="431.74" y="-604.8" font-family="Helvetica Neue,Arial,Helvetica,sans-serif" font-size="16.00"> &#160;&#160;&#160;&#160;&#160;&#160;&#160;&#160;&#160;</text>
<text text-anchor="start" x="476.74" y="-604.8" font-family="Helvetica Neue,Arial,Helvetica,sans-serif" font-weight="bold" font-size="15.00">3.</text>
<text text-anchor="start" x="489.49" y="-604.8" font-family="Helvetica Neue,Arial,Helvetica,sans-serif" font-size="15.00"> Personality</text>
<text text-anchor="start" x="435.11" y="-588.8" font-family="Helvetica Neue,Arial,Helvetica,sans-serif" font-size="15.00">State Loading</text>
<text text-anchor="start" x="528.11" y="-588.8" font-family="Helvetica Neue,Arial,Helvetica,sans-serif" font-size="16.00"> &#160;&#160;&#160;&#160;&#160;&#160;&#160;</text>
<polygon fill="#ecf6f0" stroke="none" points="88.74,-513 88.74,-573 243.49,-573 243.49,-513 88.74,-513"/>
<polygon fill="none" stroke="#3d6b52" points="88.74,-513 88.74,-573 243.49,-573 243.49,-513 88.74,-513"/>
<text text-anchor="start" x="109.49" y="-544.8" font-family="Helvetica Neue,Arial,Helvetica,sans-serif" font-size="16.00"> &#160;&#160;&#160;&#160;&#160;&#160;&#160;&#160;&#160;</text>
<text text-anchor="start" x="154.49" y="-544.8" font-family="Helvetica Neue,Arial,Helvetica,sans-serif" font-weight="bold" font-size="15.00">4.</text>
<text text-anchor="start" x="167.24" y="-544.8" font-family="Helvetica Neue,Arial,Helvetica,sans-serif" font-size="15.00"> OCEAN</text>
<text text-anchor="start" x="116.24" y="-528.8" font-family="Helvetica Neue,Arial,Helvetica,sans-serif" font-size="15.00">Detection</text>
<text text-anchor="start" x="179.99" y="-528.8" font-family="Helvetica Neue,Arial,Helvetica,sans-serif" font-size="16.00"> &#160;&#160;&#160;&#160;&#160;&#160;&#160;</text>
<polygon fill="#ecf6f0" stroke="none" points="243.49,-513 243.49,-573 401.24,-573 401.24,-513 243.49,-513"/>
<polygon fill="none" stroke="#3d6b52" points="243.49,-513 243.49,-573 401.24,-573 401.24,-513 243.49,-513"/>
<text text-anchor="start" x="275.49" y="-544.8" font-family="Helvetica Neue,Arial,Helvetica,sans-serif" font-size="16.00"> &#160;&#160;&#160;&#160;&#160;&#160;&#160;&#160;&#160;</text>
<text text-anchor="start" x="320.49" y="-544.8" font-family="Helvetica Neue,Arial,Helvetica,sans-serif" font-weight="bold" font-size="15.00">5.</text>
<text text-anchor="start" x="333.24" y="-544.8" font-family="Helvetica Neue,Arial,Helvetica,sans-serif" font-size="15.00"> EMA</text>
<text text-anchor="start" x="264.24" y="-528.8" font-family="Helvetica Neue,Arial,Helvetica,sans-serif" font-size="15.00">Stabilization</text>
<text text-anchor="start" x="344.49" y="-528.8" font-family="Helvetica Neue,Arial,Helvetica,sans-serif" font-size="16.00"> &#160;&#160;&#160;&#160;&#160;&#160;&#160;</text>
<polygon fill="#ecf6f0" stroke="none" points="401.24,-513 401.24,-573 597.99,-573 597.99,-513 401.24,-513"/>
<polygon fill="none" stroke="#3d6b52" points="401.24,-513 401.24,-573 597.99,-573 597.99,-513 401.24,-513"/>
<text text-anchor="start" x="415.24" y="-538.55" font-family="Helvetica Neue,Arial,Helvetica,sans-serif" font-size="16.00"> &#160;&#160;&#160;&#160;&#160;&#160;&#160;&#160;&#160;</text>
<text text-anchor="start" x="460.24" y="-538.55" font-family="Helvetica Neue,Arial,Helvetica,sans-serif" font-weight="bold" font-size="15.00">6.</text>
<text text-anchor="start" x="472.99" y="-538.55" font-family="Helvetica Neue,Arial,Helvetica,sans-serif" font-size="15.00"> Regulation</text>
<text text-anchor="start" x="547.99" y="-538.55" font-family="Helvetica Neue,Arial,Helvetica,sans-serif" font-size="16.00"> &#160;&#160;&#160;&#160;&#160;&#160;&#160;</text>
<polygon fill="#f4faf6" stroke="none" points="88.74,-453 88.74,-513 243.49,-513 243.49,-453 88.74,-453"/>
<polygon fill="none" stroke="#3d6b52" points="88.74,-453 88.74,-513 243.49,-513 243.49,-453 88.74,-453"/>
<text text-anchor="start" x="115.11" y="-484.8" font-family="Helvetica Neue,Arial,Helvetica,sans-serif" font-size="16.00"> &#160;&#160;&#160;&#160;&#160;&#160;&#160;&#160;&#160;</text>
<text text-anchor="start" x="160.11" y="-484.8" font-family="Helvetica Neue,Arial,Helvetica,sans-serif" font-weight="bold" font-size="15.00">7.</text>
<text text-anchor="start" x="172.86" y="-484.8" font-family="Helvetica Neue,Arial,Helvetica,sans-serif" font-size="15.00"> Policy</text>
<text text-anchor="start" x="118.86" y="-468.8" font-family="Helvetica Neue,Arial,Helvetica,sans-serif" font-size="15.00">Retrieval</text>
<text text-anchor="start" x="177.36" y="-468.8" font-family="Helvetica Neue,Arial,Helvetica,sans-serif" font-size="16.00"> &#160;&#160;&#160;&#160;&#160;&#160;&#160;</text>
<polygon fill="#f4faf6" stroke="none" points="243.49,-453 243.49,-513 401.24,-513 401.24,-453 243.49,-453"/>
<polygon fill="none" stroke="#3d6b52" points="243.49,-453 243.49,-513 401.24,-513 401.24,-453 243.49,-453"/>
<text text-anchor="start" x="257.49" y="-484.8" font-family="Helvetica Neue,Arial,Helvetica,sans-serif" font-size="16.00"> &#160;&#160;&#160;&#160;&#160;&#160;&#160;&#160;&#160;</text>
<text text-anchor="start" x="302.49" y="-484.8" font-family="Helvetica Neue,Arial,Helvetica,sans-serif" font-weight="bold" font-size="15.00">8.</text>
<text text-anchor="start" x="315.24" y="-484.8" font-family="Helvetica Neue,Arial,Helvetica,sans-serif" font-size="15.00"> Response</text>
<text text-anchor="start" x="267.61" y="-468.8" font-family="Helvetica Neue,Arial,Helvetica,sans-serif" font-size="15.00">Generation</text>
<text text-anchor="start" x="341.11" y="-468.8" font-family="Helvetica Neue,Arial,Helvetica,sans-serif" font-size="16.00"> &#160;&#160;&#160;&#160;&#160;&#160;&#160;</text>
<polygon fill="#f4faf6" stroke="none" points="401.24,-453 401.24,-513 597.99,-513 597.99,-453 401.24,-453"/>
<polygon fill="none" stroke="#3d6b52" points="401.24,-453 401.24,-513 597.99,-513 597.99,-453 401.24,-453"/>
<text text-anchor="start" x="433.99" y="-484.8" font-family="Helvetica Neue,Arial,Helvetica,sans-serif" font-size="16.00"> &#160;&#160;&#160;&#160;&#160;&#160;&#160;&#160;&#160;</text>
<text text-anchor="start" x="478.99" y="-484.8" font-family="Helvetica Neue,Arial,Helvetica,sans-serif" font-weight="bold" font-size="15.00">9.</text>
<text text-anchor="start" x="491.74" y="-484.8" font-family="Helvetica Neue,Arial,Helvetica,sans-serif" font-size="15.00"> Grounding</text>
<text text-anchor="start" x="445.24" y="-468.8" font-family="Helvetica Neue,Arial,Helvetica,sans-serif" font-size="15.00">Verification</text>
<text text-anchor="start" x="517.99" y="-468.8" font-family="Helvetica Neue,Arial,Helvetica,sans-serif" font-size="16.00"> &#160;&#160;&#160;&#160;&#160;&#160;&#160;</text>
<polygon fill="#c8e0d0" stroke="none" points="88.74,-409.5 88.74,-453 597.99,-453 597.99,-409.5 88.74,-409.5"/>
<text text-anchor="start" x="142.74" y="-426.8" font-family="Helvetica Neue,Arial,Helvetica,sans-serif" font-size="16.00"> &#160;&#160;&#160;&#160;&#160;&#160;&#160;&#160;&#160;</text>
<text text-anchor="start" x="187.74" y="-426.8" font-family="Helvetica Neue,Arial,Helvetica,sans-serif" font-weight="bold" font-size="15.00">Persistence</text>
<text text-anchor="start" x="270.99" y="-426.8" font-family="Helvetica Neue,Arial,Helvetica,sans-serif" font-size="15.00">  (audit · session · personality state)</text>
<text text-anchor="start" x="507.99" y="-426.8" font-family="Helvetica Neue,Arial,Helvetica,sans-serif" font-size="16.00"> &#160;&#160;&#160;&#160;&#160;&#160;&#160;</text>
<path fill="none" stroke="#3d6b52" stroke-width="2" d="M99.74,-408.5C99.74,-408.5 586.99,-408.5 586.99,-408.5 592.99,-408.5 598.99,-414.5 598.99,-420.5 598.99,-420.5 598.99,-672.5 598.99,-672.5 598.99,-678.5 592.99,-684.5 586.99,-684.5 586.99,-684.5 99.74,-684.5 99.74,-684.5 93.74,-684.5 87.74,-678.5 87.74,-672.5 87.74,-672.5 87.74,-420.5 87.74,-420.5 87.74,-414.5 93.74,-408.5 99.74,-408.5"/>
</g>
<!-- db -->
<g id="node7" class="node">
<title>db</title>
<path fill="#fbf9f4" stroke="none" d="M514.36,-1C514.36,-1 706.36,-1 706.36,-1 712.36,-1 718.36,-7 718.36,-13 718.36,-13 718.36,-138 718.36,-138 718.36,-144 712.36,-150 706.36,-150 706.36,-150 514.36,-150 514.36,-150 508.36,-150 502.36,-144 502.36,-138 502.36,-138 502.36,-13 502.36,-13 502.36,-7 508.36,-1 514.36,-1"/>
<polygon fill="#7a6a50" stroke="none" points="503.36,-104 503.36,-149 717.36,-149 717.36,-104 503.36,-104"/>
<text text-anchor="start" x="537.61" y="-121.85" font-family="Helvetica Neue,Arial,Helvetica,sans-serif" font-size="16.00"> &#160;&#160;&#160;&#160;&#160;&#160;&#160;&#160;&#160;</text>
<text text-anchor="start" x="582.61" y="-121.85" font-family="Helvetica Neue,Arial,Helvetica,sans-serif" font-weight="bold" font-size="17.00" fill="white">Storage</text>
<text text-anchor="start" x="647.11" y="-121.85" font-family="Helvetica Neue,Arial,Helvetica,sans-serif" font-size="16.00"> &#160;&#160;&#160;&#160;&#160;&#160;&#160;</text>
<text text-anchor="start" x="514.36" y="-78.8" font-family="Helvetica Neue,Arial,Helvetica,sans-serif" font-size="16.00"> &#160;&#160;&#160;&#160;&#160;&#160;&#160;&#160;&#160;</text>
<text text-anchor="start" x="559.36" y="-78.8" font-family="Helvetica Neue,Arial,Helvetica,sans-serif" font-size="14.00">PostgreSQL + pgvector</text>
<text text-anchor="start" x="560.11" y="-62.8" font-family="Helvetica Neue,Arial,Helvetica,sans-serif" font-size="16.00"> &#160;&#160;&#160;&#160;&#160;&#160;&#160;&#160;&#160;</text>
<text text-anchor="start" x="605.11" y="-62.8" font-family="Helvetica Neue,Arial,Helvetica,sans-serif" font-size="14.00">Sessions</text>
<text text-anchor="start" x="533.11" y="-46.8" font-family="Helvetica Neue,Arial,Helvetica,sans-serif" font-size="16.00"> &#160;&#160;&#160;&#160;&#160;&#160;&#160;&#160;&#160;</text>
<text text-anchor="start" x="578.11" y="-46.8" font-family="Helvetica Neue,Arial,Helvetica,sans-serif" font-size="14.00">Personality states</text>
<text text-anchor="start" x="539.49" y="-30.8" font-family="Helvetica Neue,Arial,Helvetica,sans-serif" font-size="16.00"> &#160;&#160;&#160;&#160;&#160;&#160;&#160;&#160;&#160;</text>
<text text-anchor="start" x="584.49" y="-30.8" font-family="Helvetica Neue,Arial,Helvetica,sans-serif" font-size="14.00">Policy evidence</text>
<text text-anchor="start" x="538.74" y="-14.8" font-family="Helvetica Neue,Arial,Helvetica,sans-serif" font-size="16.00"> &#160;&#160;&#160;&#160;&#160;&#160;&#160;&#160;&#160;</text>
<text text-anchor="start" x="583.74" y="-14.8" font-family="Helvetica Neue,Arial,Helvetica,sans-serif" font-size="14.00">Audit logs</text>
<text text-anchor="start" x="645.99" y="-14.8" font-family="Helvetica Neue,Arial,Helvetica,sans-serif" font-size="16.00"> &#160;&#160;&#160;&#160;&#160;&#160;&#160;</text>
<path fill="none" stroke="#8a7a60" stroke-width="2" d="M514.36,-1C514.36,-1 706.36,-1 706.36,-1 712.36,-1 718.36,-7 718.36,-13 718.36,-13 718.36,-138 718.36,-138 718.36,-144 712.36,-150 706.36,-150 706.36,-150 514.36,-150 514.36,-150 508.36,-150 502.36,-144 502.36,-138 502.36,-138 502.36,-13 502.36,-13 502.36,-7 508.36,-1 514.36,-1"/>
</g>
<!-- llm -->
<g id="node8" class="node">
<title>llm</title>
<path fill="#fbf9f4" stroke="none" d="M247.99,-25C247.99,-25 452.74,-25 452.74,-25 458.74,-25 464.74,-31 464.74,-37 464.74,-37 464.74,-114 464.74,-114 464.74,-120 458.74,-126 452.74,-126 452.74,-126 247.99,-126 247.99,-126 241.99,-126 235.99,-120 235.99,-114 235.99,-114 235.99,-37 235.99,-37 235.99,-31 241.99,-25 247.99,-25"/>
<polygon fill="#7a6a50" stroke="none" points="236.99,-80 236.99,-125 463.74,-125 463.74,-80 236.99,-80"/>
<text text-anchor="start" x="259.61" y="-97.85" font-family="Helvetica Neue,Arial,Helvetica,sans-serif" font-size="16.00"> &#160;&#160;&#160;&#160;&#160;&#160;&#160;&#160;&#160;</text>
<text text-anchor="start" x="304.61" y="-97.85" font-family="Helvetica Neue,Arial,Helvetica,sans-serif" font-weight="bold" font-size="17.00" fill="white">LLM Service</text>
<text text-anchor="start" x="405.11" y="-97.85" font-family="Helvetica Neue,Arial,Helvetica,sans-serif" font-size="16.00"> &#160;&#160;&#160;&#160;&#160;&#160;&#160;</text>
<text text-anchor="start" x="292.99" y="-54.8" font-family="Helvetica Neue,Arial,Helvetica,sans-serif" font-size="16.00"> &#160;&#160;&#160;&#160;&#160;&#160;&#160;&#160;&#160;</text>
<text text-anchor="start" x="337.99" y="-54.8" font-family="Helvetica Neue,Arial,Helvetica,sans-serif" font-size="14.00">NVIDIA API</text>
<text text-anchor="start" x="247.99" y="-38.8" font-family="Helvetica Neue,Arial,Helvetica,sans-serif" font-size="16.00"> &#160;&#160;&#160;&#160;&#160;&#160;&#160;&#160;&#160;</text>
<text text-anchor="start" x="292.99" y="-38.8" font-family="Helvetica Neue,Arial,Helvetica,sans-serif" font-size="14.00">Meta Llama 3.3 70B</text>
<text text-anchor="start" x="416.74" y="-38.8" font-family="Helvetica Neue,Arial,Helvetica,sans-serif" font-size="16.00"> &#160;&#160;&#160;&#160;&#160;&#160;&#160;</text>
<path fill="none" stroke="#8a7a60" stroke-width="2" d="M247.99,-25C247.99,-25 452.74,-25 452.74,-25 458.74,-25 464.74,-31 464.74,-37 464.74,-37 464.74,-114 464.74,-114 464.74,-120 458.74,-126 452.74,-126 452.74,-126 247.99,-126 247.99,-126 241.99,-126 235.99,-120 235.99,-114 235.99,-114 235.99,-37 235.99,-37 235.99,-31 241.99,-25 247.99,-25"/>
</g>
<!-- api_post -->
<g id="node9" class="node">
<title>api_post</title>
<path fill="#f7f9fa" stroke="none" d="M411.36,-210C411.36,-210 809.36,-210 809.36,-210 815.36,-210 821.36,-216 821.36,-222 821.36,-222 821.36,-336.5 821.36,-336.5 821.36,-342.5 815.36,-348.5 809.36,-348.5 809.36,-348.5 411.36,-348.5 411.36,-348.5 405.36,-348.5 399.36,-342.5 399.36,-336.5 399.36,-336.5 399.36,-222 399.36,-222 399.36,-216 405.36,-210 411.36,-210"/>
<polygon fill="#3d5060" stroke="none" points="400.36,-299 400.36,-347.5 820.36,-347.5 820.36,-299 400.36,-299"/>
<text text-anchor="start" x="481.74" y="-318.4" font-family="Helvetica Neue,Arial,Helvetica,sans-serif" font-size="16.00"> &#160;&#160;&#160;&#160;&#160;&#160;&#160;&#160;&#160;</text>
<text text-anchor="start" x="526.74" y="-318.4" font-family="Helvetica Neue,Arial,Helvetica,sans-serif" font-weight="bold" font-size="18.00" fill="white">API Post&#45;processing</text>
<text text-anchor="start" x="702.99" y="-318.4" font-family="Helvetica Neue,Arial,Helvetica,sans-serif" font-size="16.00"> &#160;&#160;&#160;&#160;&#160;&#160;&#160;</text>
<text text-anchor="start" x="536.49" y="-272.8" font-family="Helvetica Neue,Arial,Helvetica,sans-serif" font-size="16.00"> &#160;&#160;&#160;&#160;&#160;&#160;&#160;&#160;&#160;</text>
<text text-anchor="start" x="581.49" y="-272.8" font-family="Helvetica Neue,Arial,Helvetica,sans-serif" font-size="15.00">Citation overlay</text>
<text text-anchor="start" x="530.86" y="-256.8" font-family="Helvetica Neue,Arial,Helvetica,sans-serif" font-size="16.00"> &#160;&#160;&#160;&#160;&#160;&#160;&#160;&#160;&#160;</text>
<text text-anchor="start" x="575.86" y="-256.8" font-family="Helvetica Neue,Arial,Helvetica,sans-serif" font-size="15.00">Grounding check</text>
<text text-anchor="start" x="539.11" y="-240.8" font-family="Helvetica Neue,Arial,Helvetica,sans-serif" font-size="16.00"> &#160;&#160;&#160;&#160;&#160;&#160;&#160;&#160;&#160;</text>
<text text-anchor="start" x="584.11" y="-240.8" font-family="Helvetica Neue,Arial,Helvetica,sans-serif" font-size="15.00">Mode override</text>
<text text-anchor="start" x="526.74" y="-224.8" font-family="Helvetica Neue,Arial,Helvetica,sans-serif" font-size="16.00"> &#160;&#160;&#160;&#160;&#160;&#160;&#160;&#160;&#160;</text>
<text text-anchor="start" x="571.74" y="-224.8" font-family="Helvetica Neue,Arial,Helvetica,sans-serif" font-size="15.00">Audit logging</text>
<text text-anchor="start" x="657.99" y="-224.8" font-family="Helvetica Neue,Arial,Helvetica,sans-serif" font-size="16.00"> &#160;&#160;&#160;&#160;&#160;&#160;&#160;</text>
<path fill="none" stroke="#4a5a63" stroke-width="2" d="M411.36,-210C411.36,-210 809.36,-210 809.36,-210 815.36,-210 821.36,-216 821.36,-222 821.36,-222 821.36,-336.5 821.36,-336.5 821.36,-342.5 815.36,-348.5 809.36,-348.5 809.36,-348.5 411.36,-348.5 411.36,-348.5 405.36,-348.5 399.36,-342.5 399.36,-336.5 399.36,-336.5 399.36,-222 399.36,-222 399.36,-216 405.36,-210 411.36,-210"/>
</g>
<!-- client_response -->
<g id="node10" class="node">
<title>client_response</title>
<path fill="#eef3f6" stroke="none" d="M768.36,-48.5C768.36,-48.5 1166.36,-48.5 1166.36,-48.5 1172.36,-48.5 1178.36,-54.5 1178.36,-60.5 1178.36,-60.5 1178.36,-90.5 1178.36,-90.5 1178.36,-96.5 1172.36,-102.5 1166.36,-102.5 1166.36,-102.5 768.36,-102.5 768.36,-102.5 762.36,-102.5 756.36,-96.5 756.36,-90.5 756.36,-90.5 756.36,-60.5 756.36,-60.5 756.36,-54.5 762.36,-48.5 768.36,-48.5"/>
<text text-anchor="start" x="849.61" y="-69.5" font-family="Helvetica Neue,Arial,Helvetica,sans-serif" font-size="16.00"> &#160;&#160;&#160;&#160;&#160;&#160;&#160;&#160;&#160;</text>
<text text-anchor="start" x="894.61" y="-69.5" font-family="Helvetica Neue,Arial,Helvetica,sans-serif" font-weight="bold" font-size="20.00">Client Response</text>
<text text-anchor="start" x="1049.11" y="-69.5" font-family="Helvetica Neue,Arial,Helvetica,sans-serif" font-size="16.00"> &#160;&#160;&#160;&#160;&#160;&#160;&#160;</text>
<path fill="none" stroke="#7b8c97" stroke-width="2" d="M768.36,-48.5C768.36,-48.5 1166.36,-48.5 1166.36,-48.5 1172.36,-48.5 1178.36,-54.5 1178.36,-60.5 1178.36,-60.5 1178.36,-90.5 1178.36,-90.5 1178.36,-96.5 1172.36,-102.5 1166.36,-102.5 1166.36,-102.5 768.36,-102.5 768.36,-102.5 762.36,-102.5 756.36,-96.5 756.36,-90.5 756.36,-90.5 756.36,-60.5 756.36,-60.5 756.36,-54.5 762.36,-48.5 768.36,-48.5"/>
</g>
</g>
</svg>
