<?xml version="1.0" encoding="UTF-8" standalone="no"?>
<!DOCTYPE svg PUBLIC "-//W3C//DTD SVG 1.1//EN"
 "http://www.w3.org/Graphics/SVG/1.1/DTD/svg11.dtd">
<!-- Generated by graphviz version 12.2.1 (20241206.2353)
 -->
<!-- Title: Big5LoopArchitecture Pages: 1 -->
<svg width="1032pt" height="1169pt"
 viewBox="1.44 1.44 1030.84 1167.84" xmlns="http://www.w3.org/2000/svg" xmlns:xlink="http://www.w3.org/1999/xlink">
<g id="graph0" class="graph" transform="scale(1 1) rotate(0) translate(8.64 1160.64)">
<title>Big5LoopArchitecture</title>
<polygon fill="white" stroke="none" points="-7.2,7.2 -7.2,-1159.2 1022.2,-1159.2 1022.2,7.2 -7.2,7.2"/>
<g id="clust1" class="cluster">
<title>cluster_main</title>
<path fill="white" stroke="#d8dee2" stroke-width="0.8" d="M20,-8C20,-8 995,-8 995,-8 1001,-8 1007,-14 1007,-20 1007,-20 1007,-1132 1007,-1132 1007,-1138 1001,-1144 995,-1144 995,-1144 20,-1144 20,-1144 14,-1144 8,-1138 8,-1132 8,-1132 8,-20 8,-20 8,-14 14,-8 20,-8"/>
</g>
<!-- client&#45;&gt;api_pre -->
<g id="edge1" class="edge">
<title>client&#45;&gt;api_pre</title>
<path fill="none" stroke="#7f8c8d" stroke-width="1.4" d="M531,-1066.16C531,-1066.16 531,-1051.64 531,-1051.64"/>
<polygon fill="#7f8c8d" stroke="#7f8c8d" stroke-width="1.4" points="531,-1042.64 535.05,-1051.64 531.2,-1045.43 531.2,-1051.64 531,-1051.64 530.8,-1051.64 530.8,-1045.43 526.95,-1051.64 531,-1042.64"/>
</g>
<!-- api_pre&#45;&gt;input_norm -->
<g id="edge2" class="edge">
<title>api_pre&#45;&gt;input_norm</title>
<path fill="none" stroke="#7f8c8d" stroke-width="1.4" d="M531,-945.84C531,-945.84 531,-931.27 531,-931.27"/>
<polygon fill="#7f8c8d" stroke="#7f8c8d" stroke-width="1.4" points="531,-922.27 535.05,-931.27 531.2,-925.07 531.2,-931.27 531,-931.27 530.8,-931.27 530.8,-925.07 526.95,-931.27 531,-922.27"/>
</g>
<!-- input_norm&#45;&gt;context_extract -->
<g id="edge3" class="edge">
<title>input_norm&#45;&gt;context_extract</title>
<path fill="none" stroke="#7f8c8d" stroke-width="1.4" d="M531,-874.89C531,-874.89 531,-860.27 531,-860.27"/>
<polygon fill="#7f8c8d" stroke="#7f8c8d" stroke-width="1.4" points="531,-851.27 535.05,-860.27 531.2,-854.06 531.2,-860.27 531,-860.27 530.8,-860.27 530.8,-854.06 526.95,-860.27 531,-851.27"/>
</g>
<!-- context_extract&#45;&gt;merge_prev -->
<g id="edge4" class="edge">
<title>context_extract&#45;&gt;merge_prev</title>
<path fill="none" stroke="#7f8c8d" stroke-width="1.4" d="M531,-803.89C531,-803.89 531,-789.27 531,-789.27"/>
<polygon fill="#7f8c8d" stroke="#7f8c8d" stroke-width="1.4" points="531,-780.27 535.05,-789.27 531.2,-783.06 531.2,-789.27 531,-789.27 530.8,-789.27 530.8,-783.06 526.95,-789.27 531,-780.27"/>
</g>
<!-- merge_prev&#45;&gt;detect -->
<g id="edge5" class="edge">
<title>merge_prev&#45;&gt;detect</title>
<path fill="none" stroke="#7f8c8d" stroke-width="1.4" d="M587.5,-732.96C587.5,-732.96 587.5,-718.15 587.5,-718.15"/>
<polygon fill="#7f8c8d" stroke="#7f8c8d" stroke-width="1.4" points="587.5,-709.15 591.55,-718.15 587.7,-711.94 587.7,-718.15 587.5,-718.15 587.3,-718.15 587.3,-711.94 583.45,-718.15 587.5,-709.15"/>
</g>
<!-- merge_prev&#45;&gt;retrieval -->
<g id="edge6" class="edge">
<title>merge_prev&#45;&gt;retrieval</title>
<path fill="none" stroke="#7f8c8d" stroke-width="1.4" d="M467.5,-732.96C467.5,-732.96 467.5,-718.15 467.5,-718.15"/>
<polygon fill="#7f8c8d" stroke="#7f8c8d" stroke-width="1.4" points="467.5,-709.15 471.55,-718.15 467.7,-711.94 467.7,-718.15 467.5,-718.15 467.3,-718.15 467.3,-711.94 463.45,-718.15 467.5,-709.15"/>
</g>
<!-- detect&#45;&gt;regulation -->
<g id="edge7" class="edge">
<title>detect&#45;&gt;regulation</title>
<path fill="none" stroke="#7f8c8d" stroke-width="1.4" d="M626.5,-615.62C626.5,-615.62 626.5,-600.95 626.5,-600.95"/>
<polygon fill="#7f8c8d" stroke="#7f8c8d" stroke-width="1.4" points="626.5,-591.95 630.55,-600.95 626.7,-594.75 626.7,-600.95 626.5,-600.95 626.3,-600.95 626.3,-594.75 622.45,-600.95 626.5,-591.95"/>
</g>
<!-- detect&#45;&gt;llm -->
<g id="edge15" class="edge">
<title>detect&#45;&gt;llm</title>
<path fill="none" stroke="#95a5a6" stroke-width="1.4" stroke-dasharray="5,2" d="M754.31,-615.51C754.31,-488.34 754.31,-142 754.31,-142 754.31,-142 755.25,-142 755.25,-142"/>
<polygon fill="#95a5a6" stroke="#95a5a6" stroke-width="1.4" points="761.98,-142 752.98,-146.05 759.18,-142.2 752.98,-142.2 752.98,-142 752.98,-141.8 759.18,-141.8 752.98,-137.95 761.98,-142"/>
</g>
<!-- retrieval&#45;&gt;merge -->
<g id="edge9" class="edge">
<title>retrieval&#45;&gt;merge</title>
<path fill="none" stroke="#7f8c8d" stroke-width="1.4" d="M471.5,-615.76C471.5,-615.76 471.5,-483.93 471.5,-483.93"/>
<polygon fill="#7f8c8d" stroke="#7f8c8d" stroke-width="1.4" points="471.5,-474.93 475.55,-483.93 471.7,-477.73 471.7,-483.93 471.5,-483.93 471.3,-483.93 471.3,-477.73 467.45,-483.93 471.5,-474.93"/>
</g>
<!-- retrieval&#45;&gt;db -->
<g id="edge18" class="edge">
<title>retrieval&#45;&gt;db</title>
<path fill="none" stroke="#95a5a6" stroke-width="1.4" stroke-dasharray="5,2" d="M317.88,-615.51C317.88,-488.34 317.88,-142 317.88,-142 317.88,-142 314.75,-142 314.75,-142"/>
<polygon fill="#95a5a6" stroke="#95a5a6" stroke-width="1.4" points="305.75,-142 314.75,-137.95 308.54,-141.8 314.75,-141.8 314.75,-142 314.75,-142.2 308.54,-142.2 314.75,-146.05 305.75,-142"/>
</g>
<!-- regulation&#45;&gt;merge -->
<g id="edge8" class="edge">
<title>regulation&#45;&gt;merge</title>
<path fill="none" stroke="#7f8c8d" stroke-width="1.4" d="M584,-498.42C584,-498.42 584,-483.87 584,-483.87"/>
<polygon fill="#7f8c8d" stroke="#7f8c8d" stroke-width="1.4" points="584,-474.87 588.05,-483.87 584.2,-477.66 584.2,-483.87 584,-483.87 583.8,-483.87 583.8,-477.66 579.95,-483.87 584,-474.87"/>
</g>
<!-- merge&#45;&gt;generate -->
<g id="edge10" class="edge">
<title>merge&#45;&gt;generate</title>
<path fill="none" stroke="#7f8c8d" stroke-width="1.4" d="M539,-427.39C539,-427.39 539,-412.77 539,-412.77"/>
<polygon fill="#7f8c8d" stroke="#7f8c8d" stroke-width="1.4" points="539,-403.77 543.05,-412.77 539.2,-406.56 539.2,-412.77 539,-412.77 538.8,-412.77 538.8,-406.56 534.95,-412.77 539,-403.77"/>
</g>
<!-- generate&#45;&gt;verify -->
<g id="edge11" class="edge">
<title>generate&#45;&gt;verify</title>
<path fill="none" stroke="#7f8c8d" stroke-width="1.4" d="M536.5,-356.39C536.5,-356.39 536.5,-341.77 536.5,-341.77"/>
<polygon fill="#7f8c8d" stroke="#7f8c8d" stroke-width="1.4" points="536.5,-332.77 540.55,-341.77 536.7,-335.56 536.7,-341.77 536.5,-341.77 536.3,-341.77 536.3,-335.56 532.45,-341.77 536.5,-332.77"/>
</g>
<!-- generate&#45;&gt;llm -->
<g id="edge16" class="edge">
<title>generate&#45;&gt;llm</title>
<path fill="none" stroke="#95a5a6" stroke-width="1.4" stroke-dasharray="5,2" d="M649.78,-379C714.45,-379 783.44,-379 783.44,-379 783.44,-379 783.44,-198.38 783.44,-198.38"/>
<polygon fill="#95a5a6" stroke="#95a5a6" stroke-width="1.4" points="783.44,-189.38 787.49,-198.38 783.64,-192.17 783.64,-198.38 783.44,-198.38 783.24,-198.38 783.24,-192.17 779.39,-198.38 783.44,-189.38"/>
</g>
<!-- verify&#45;&gt;persist -->
<g id="edge12" class="edge">
<title>verify&#45;&gt;persist</title>
<path fill="none" stroke="#7f8c8d" stroke-width="1.4" d="M534,-285.39C534,-285.39 534,-270.77 534,-270.77"/>
<polygon fill="#7f8c8d" stroke="#7f8c8d" stroke-width="1.4" points="534,-261.77 538.05,-270.77 534.2,-264.56 534.2,-270.77 534,-270.77 533.8,-270.77 533.8,-264.56 529.95,-270.77 534,-261.77"/>
</g>
<!-- persist&#45;&gt;api_post -->
<g id="edge13" class="edge">
<title>persist&#45;&gt;api_post</title>
<path fill="none" stroke="#7f8c8d" stroke-width="1.4" d="M534,-214.59C534,-214.59 534,-199.67 534,-199.67"/>
<polygon fill="#7f8c8d" stroke="#7f8c8d" stroke-width="1.4" points="534,-190.67 538.05,-199.67 534.2,-193.46 534.2,-199.67 534,-199.67 533.8,-199.67 533.8,-193.46 529.95,-199.67 534,-190.67"/>
</g>
<!-- persist&#45;&gt;db -->
<g id="edge17" class="edge">
<title>persist&#45;&gt;db</title>
<path fill="none" stroke="#95a5a6" stroke-width="1.4" stroke-dasharray="5,2" d="M423.18,-237C355.63,-237 282.19,-237 282.19,-237 282.19,-237 282.19,-198.34 282.19,-198.34"/>
<polygon fill="#95a5a6" stroke="#95a5a6" stroke-width="1.4" points="282.19,-189.34 286.24,-198.34 282.39,-192.14 282.39,-198.34 282.19,-198.34 281.99,-198.34 281.99,-192.14 278.14,-198.34 282.19,-189.34"/>
</g>
<!-- api_post&#45;&gt;client_response -->
<g id="edge14" class="edge">
<title>api_post&#45;&gt;client_response</title>
<path fill="none" stroke="#7f8c8d" stroke-width="1.4" d="M534,-94.2C534,-94.2 534,-79.61 534,-79.61"/>
<polygon fill="#7f8c8d" stroke="#7f8c8d" stroke-width="1.4" points="534,-70.61 538.05,-79.61 534.2,-73.4 534.2,-79.61 534,-79.61 533.8,-79.61 533.8,-73.4 529.95,-79.61 534,-70.61"/>
</g>
<!-- client -->
<g id="node1" class="node">
<title>client</title>
<polygon fill="#f8fafa" stroke="none" points="420,-1066 420,-1132 642,-1132 642,-1066 420,-1066"/>
<text text-anchor="start" x="500.25" y="-1101.1" font-family="Helvetica Neue,Arial,Helvetica,sans-serif" font-weight="bold" font-size="22.00">Client</text>
<text text-anchor="start" x="490.88" y="-1079.1" font-family="Helvetica Neue,Arial,Helvetica,sans-serif" font-size="22.00">(Next.js)</text>
<polygon fill="none" stroke="#9aa8b0" points="420,-1066 420,-1132 642,-1132 642,-1066 420,-1066"/>
</g>
<!-- api_pre -->
<g id="node2" class="node">
<title>api_pre</title>
<polygon fill="#f7f9fa" stroke="none" points="260.12,-945.75 260.12,-1041 801.88,-1041 801.88,-945.75 260.12,-945.75"/>
<polygon fill="#495a63" stroke="none" points="261.12,-993 261.12,-1040 800.88,-1040 800.88,-993 261.12,-993"/>
<text text-anchor="start" x="428.62" y="-1010.1" font-family="Helvetica Neue,Arial,Helvetica,sans-serif" font-weight="bold" font-size="22.00" fill="white">API Pre&#45;processing</text>
<text text-anchor="start" x="271.12" y="-962.1" font-family="Helvetica Neue,Arial,Helvetica,sans-serif" font-size="22.00">Hybrid LLM router · Retrieval gate · Session isolation</text>
<polygon fill="none" stroke="#7b8c97" points="260.12,-945.75 260.12,-1041 801.88,-1041 801.88,-945.75 260.12,-945.75"/>
</g>
<!-- input_norm -->
<g id="node3" class="node">
<title>input_norm</title>
<polygon fill="#f8faf8" stroke="none" points="420,-874.75 420,-920.75 642,-920.75 642,-874.75 420,-874.75"/>
<text text-anchor="start" x="444.38" y="-890.75" font-family="Helvetica Neue,Arial,Helvetica,sans-serif" font-size="20.00">Input Normalization</text>
<polygon fill="none" stroke="#7b9a8b" points="420,-874.75 420,-920.75 642,-920.75 642,-874.75 420,-874.75"/>
</g>
<!-- context_extract -->
<g id="node4" class="node">
<title>context_extract</title>
<polygon fill="#f8faf8" stroke="none" points="420,-803.75 420,-849.75 642,-849.75 642,-803.75 420,-803.75"/>
<text text-anchor="start" x="448.88" y="-819.75" font-family="Helvetica Neue,Arial,Helvetica,sans-serif" font-size="20.00">Context Extraction</text>
<polygon fill="none" stroke="#7b9a8b" points="420,-803.75 420,-849.75 642,-849.75 642,-803.75 420,-803.75"/>
</g>
<!-- merge_prev -->
<g id="node5" class="node">
<title>merge_prev</title>
<polygon fill="#f8faf8" stroke="none" points="420,-732.75 420,-778.75 642,-778.75 642,-732.75 420,-732.75"/>
<text text-anchor="start" x="436.5" y="-748.75" font-family="Helvetica Neue,Arial,Helvetica,sans-serif" font-size="20.00">Merge Previous State</text>
<polygon fill="none" stroke="#7b9a8b" points="420,-732.75 420,-778.75 642,-778.75 642,-732.75 420,-732.75"/>
</g>
<!-- detect -->
<g id="node6" class="node">
<title>detect</title>
<polygon fill="#e8f4ea" stroke="none" points="533,-615.5 533,-707.75 765,-707.75 765,-615.5 533,-615.5"/>
<text text-anchor="start" x="564.62" y="-678.75" font-family="Helvetica Neue,Arial,Helvetica,sans-serif" font-weight="bold" font-size="20.00">OCEAN Detection</text>
<text text-anchor="start" x="544" y="-631.85" font-family="Helvetica Neue,Arial,Helvetica,sans-serif" font-size="22.00">EMA + cache bypass</text>
<polygon fill="none" stroke="#7b9a8b" points="533,-615.5 533,-707.75 765,-707.75 765,-615.5 533,-615.5"/>
</g>
<!-- retrieval -->
<g id="node7" class="node">
<title>retrieval</title>
<polygon fill="#e8f4ea" stroke="none" points="313,-615.5 313,-707.75 515,-707.75 515,-615.5 313,-615.5"/>
<text text-anchor="start" x="340.88" y="-678.75" font-family="Helvetica Neue,Arial,Helvetica,sans-serif" font-weight="bold" font-size="20.00">Policy Retrieval</text>
<text text-anchor="start" x="340.5" y="-631.85" font-family="Helvetica Neue,Arial,Helvetica,sans-serif" font-size="22.00">FTS / pgvector</text>
<polygon fill="none" stroke="#7b9a8b" points="313,-615.5 313,-707.75 515,-707.75 515,-615.5 313,-615.5"/>
</g>
<!-- regulation -->
<g id="node8" class="node">
<title>regulation</title>
<polygon fill="#e8f4ea" stroke="none" points="518,-498.25 518,-590.5 720,-590.5 720,-498.25 518,-498.25"/>
<text text-anchor="start" x="568" y="-561.5" font-family="Helvetica Neue,Arial,Helvetica,sans-serif" font-weight="bold" font-size="20.00">Regulation</text>
<text text-anchor="start" x="541" y="-514.6" font-family="Helvetica Neue,Arial,Helvetica,sans-serif" font-size="22.00">trait → directive</text>
<polygon fill="none" stroke="#7b9a8b" points="518,-498.25 518,-590.5 720,-590.5 720,-498.25 518,-498.25"/>
</g>
<!-- merge -->
<g id="node9" class="node">
<title>merge</title>
<polygon fill="#dce8e1" stroke="none" points="428,-427.25 428,-473.25 650,-473.25 650,-427.25 428,-427.25"/>
<text text-anchor="start" x="509" y="-444.25" font-family="Helvetica Neue,Arial,Helvetica,sans-serif" font-weight="bold" font-size="20.00">Merge</text>
<polygon fill="none" stroke="#7b9a8b" points="428,-427.25 428,-473.25 650,-473.25 650,-427.25 428,-427.25"/>
</g>
<!-- generate -->
<g id="node10" class="node">
<title>generate</title>
<polygon fill="#f8faf8" stroke="none" points="428,-356.25 428,-402.25 650,-402.25 650,-356.25 428,-356.25"/>
<text text-anchor="start" x="443.38" y="-372.25" font-family="Helvetica Neue,Arial,Helvetica,sans-serif" font-size="20.00">Response Generation</text>
<polygon fill="none" stroke="#7b9a8b" points="428,-356.25 428,-402.25 650,-402.25 650,-356.25 428,-356.25"/>
</g>
<!-- verify -->
<g id="node11" class="node">
<title>verify</title>
<polygon fill="#f8faf8" stroke="none" points="423,-285.25 423,-331.25 645,-331.25 645,-285.25 423,-285.25"/>
<text text-anchor="start" x="435" y="-301.25" font-family="Helvetica Neue,Arial,Helvetica,sans-serif" font-size="20.00">Grounding Verification</text>
<polygon fill="none" stroke="#7b9a8b" points="423,-285.25 423,-331.25 645,-331.25 645,-285.25 423,-285.25"/>
</g>
<!-- persist -->
<g id="node12" class="node">
<title>persist</title>
<polygon fill="#dce8e1" stroke="none" points="423,-214.25 423,-260.25 645,-260.25 645,-214.25 423,-214.25"/>
<text text-anchor="start" x="441.75" y="-231.25" font-family="Helvetica Neue,Arial,Helvetica,sans-serif" font-weight="bold" font-size="20.00">Persistence &amp; Audit</text>
<polygon fill="none" stroke="#7b9a8b" points="423,-214.25 423,-260.25 645,-260.25 645,-214.25 423,-214.25"/>
</g>
<!-- api_post -->
<g id="node13" class="node">
<title>api_post</title>
<polygon fill="#f7f9fa" stroke="none" points="322.75,-94 322.75,-189.25 745.25,-189.25 745.25,-94 322.75,-94"/>
<polygon fill="#495a63" stroke="none" points="323.75,-141.25 323.75,-188.25 744.25,-188.25 744.25,-141.25 323.75,-141.25"/>
<text text-anchor="start" x="425.62" y="-158.35" font-family="Helvetica Neue,Arial,Helvetica,sans-serif" font-weight="bold" font-size="22.00" fill="white">API Post&#45;processing</text>
<text text-anchor="start" x="333.75" y="-110.35" font-family="Helvetica Neue,Arial,Helvetica,sans-serif" font-size="22.00">citation overlay · grounding check · audit</text>
<polygon fill="none" stroke="#7b8c97" points="322.75,-94 322.75,-189.25 745.25,-189.25 745.25,-94 322.75,-94"/>
</g>
<!-- client_response -->
<g id="node14" class="node">
<title>client_response</title>
<polygon fill="#f8fafa" stroke="none" points="423,-20 423,-69 645,-69 645,-20 423,-20"/>
<text text-anchor="start" x="447.75" y="-38.1" font-family="Helvetica Neue,Arial,Helvetica,sans-serif" font-weight="bold" font-size="22.00">Client Response</text>
<polygon fill="none" stroke="#9aa8b0" points="423,-20 423,-69 645,-69 645,-20 423,-20"/>
</g>
<!-- llm -->
<g id="node15" class="node">
<title>llm</title>
<polygon fill="#fbf9f4" stroke="none" points="763.38,-95.5 763.38,-187.75 994.62,-187.75 994.62,-95.5 763.38,-95.5"/>
<polygon fill="#e7dece" stroke="none" points="764.38,-142.75 764.38,-186.75 993.62,-186.75 993.62,-142.75 764.38,-142.75"/>
<text text-anchor="start" x="820.5" y="-158.75" font-family="Helvetica Neue,Arial,Helvetica,sans-serif" font-weight="bold" font-size="20.00">LLM Service</text>
<text text-anchor="start" x="774.38" y="-111.85" font-family="Helvetica Neue,Arial,Helvetica,sans-serif" font-size="22.00">NVIDIA API · LLM 3.0</text>
<polygon fill="none" stroke="#b3a892" points="763.38,-95.5 763.38,-187.75 994.62,-187.75 994.62,-95.5 763.38,-95.5"/>
</g>
<!-- db -->
<g id="node16" class="node">
<title>db</title>
<polygon fill="#fbf9f4" stroke="none" points="19.75,-95.5 19.75,-187.75 304.25,-187.75 304.25,-95.5 19.75,-95.5"/>
<polygon fill="#e7dece" stroke="none" points="20.75,-142.75 20.75,-186.75 303.25,-186.75 303.25,-142.75 20.75,-142.75"/>
<text text-anchor="start" x="125.25" y="-158.75" font-family="Helvetica Neue,Arial,Helvetica,sans-serif" font-weight="bold" font-size="20.00">Storage</text>
<text text-anchor="start" x="30.75" y="-111.85" font-family="Helvetica Neue,Arial,Helvetica,sans-serif" font-size="22.00">PostgreSQL 16 + pgvector</text>
<polygon fill="none" stroke="#b3a892" points="19.75,-95.5 19.75,-187.75 304.25,-187.75 304.25,-95.5 19.75,-95.5"/>
</g>
</g>
</svg>
