<?xml version="1.0" encoding="UTF-8" standalone="no"?>
<!DOCTYPE svg PUBLIC "-//W3C//DTD SVG 1.1//EN"
 "http://www.w3.org/Graphics/SVG/1.1/DTD/svg11.dtd">
<!-- Generated by graphviz version 12.2.1 (20241206.2353)
 -->
<!-- Title: Big5LoopArchitecture Pages: 1 -->
<svg width="1485pt" height="518pt"
 viewBox="1.44 1.44 1483.48 516.48" xmlns="http://www.w3.org/2000/svg" xmlns:xlink="http://www.w3.org/1999/xlink">
<g id="graph0" class="graph" transform="scale(1 1) rotate(0) translate(12.96 504.96)">
<title>Big5LoopArchitecture</title>
<polygon fill="white" stroke="none" points="-11.52,11.52 -11.52,-503.52 1470.52,-503.52 1470.52,11.52 -11.52,11.52"/>
<g id="clust1" class="cluster">
<title>cluster_system</title>
<path fill="white" stroke="#d8dee2" stroke-width="0.8" d="M20,-8C20,-8 1439,-8 1439,-8 1445,-8 1451,-14 1451,-20 1451,-20 1451,-472 1451,-472 1451,-478 1445,-484 1439,-484 1439,-484 20,-484 20,-484 14,-484 8,-478 8,-472 8,-472 8,-20 8,-20 8,-14 14,-8 20,-8"/>
</g>
<!-- client&#45;&gt;api_pre -->
<g id="edge2" class="edge">
<title>client&#45;&gt;api_pre</title>
<path fill="none" stroke="#7f8c8d" d="M159.58,-364C159.58,-364 191.44,-364 191.44,-364"/>
<polygon fill="#7f8c8d" stroke="#7f8c8d" points="198.94,-364 191.44,-367.38 196.41,-364 191.44,-364 191.44,-364 191.44,-364 196.41,-364 191.44,-360.63 198.94,-364"/>
</g>
<!-- api_pre&#45;&gt;flow_note -->
<g id="edge3" class="edge">
<title>api_pre&#45;&gt;flow_note</title>
<path fill="none" stroke="#a7b2b8" stroke-width="0.8" d="M381.85,-364C396.4,-364 410.49,-364 422.18,-364"/>
</g>
<!-- pipeline&#45;&gt;api_post -->
<g id="edge5" class="edge">
<title>pipeline:exit&#45;&gt;api_post</title>
<path fill="none" stroke="#7f8c8d" d="M918.16,-364C918.16,-364 1033.5,-364 1033.5,-364"/>
<polygon fill="#7f8c8d" stroke="#7f8c8d" points="1041,-364 1033.5,-367.38 1038.47,-364 1033.5,-364 1033.5,-364 1033.5,-364 1038.47,-364 1033.5,-360.63 1041,-364"/>
</g>
<!-- pipeline&#45;&gt;db -->
<g id="edge8" class="edge">
<title>pipeline:persist&#45;&gt;db</title>
<path fill="none" stroke="#95a5a6" stroke-dasharray="5,2" d="M888,-269.15C888,-269.15 888,-225.62 888,-225.62"/>
<polygon fill="#95a5a6" stroke="#95a5a6" points="888,-218.12 891.38,-225.62 888,-220.65 888,-225.62 888,-225.62 888,-225.62 888,-220.65 884.63,-225.62 888,-218.12"/>
<text text-anchor="middle" x="866.25" y="-249.89" font-family="Helvetica Neue,Arial,Helvetica,sans-serif" font-size="10.00">data sync</text>
</g>
<!-- pipeline&#45;&gt;llm -->
<g id="edge9" class="edge">
<title>pipeline:response&#45;&gt;llm</title>
<path fill="none" stroke="#7f8c8d" d="M636,-325.35C636,-325.35 636,-179.04 636,-179.04"/>
<polygon fill="#7f8c8d" stroke="#7f8c8d" points="636,-171.54 639.38,-179.04 636,-174.07 636,-179.04 636,-179.04 636,-179.04 636,-174.07 632.63,-179.04 636,-171.54"/>
</g>
<!-- pipeline&#45;&gt;bottom_anchor -->
<!-- api_post&#45;&gt;client_response -->
<g id="edge6" class="edge">
<title>api_post&#45;&gt;client_response</title>
<path fill="none" stroke="#7f8c8d" d="M1223.93,-364C1223.93,-364 1255.75,-364 1255.75,-364"/>
<polygon fill="#7f8c8d" stroke="#7f8c8d" points="1263.25,-364 1255.75,-367.38 1260.72,-364 1255.75,-364 1255.75,-364 1255.75,-364 1260.72,-364 1255.75,-360.63 1263.25,-364"/>
</g>
<!-- client_response&#45;&gt;right_pad -->
<!-- flow_note&#45;&gt;pipeline -->
<g id="edge4" class="edge">
<title>flow_note&#45;&gt;pipeline:p11</title>
<path fill="none" stroke="#7f8c8d" d="M481.67,-364C481.67,-364 595.22,-364 595.22,-364"/>
<polygon fill="#7f8c8d" stroke="#7f8c8d" points="602.72,-364 595.22,-367.38 600.19,-364 595.22,-364 595.22,-364 595.22,-364 600.19,-364 595.22,-360.63 602.72,-364"/>
</g>
<!-- db&#45;&gt;bottom_anchor -->
<!-- left_pad&#45;&gt;client -->
<!-- bottom_anchor&#45;&gt;llm -->
<!-- client -->
<g id="node1" class="node">
<title>client</title>
<polygon fill="#f8fafa" stroke="none" points="68,-342 68,-386 160,-386 160,-342 68,-342"/>
<text text-anchor="start" x="94.12" y="-364.7" font-family="Helvetica Neue,Arial,Helvetica,sans-serif" font-weight="bold" font-size="14.00">Client</text>
<text text-anchor="start" x="92.25" y="-352.6" font-family="Helvetica Neue,Arial,Helvetica,sans-serif" font-size="12.00">(Next.js)</text>
<polygon fill="none" stroke="#9aa8b0" points="68,-342 68,-386 160,-386 160,-342 68,-342"/>
</g>
<!-- api_pre -->
<g id="node2" class="node">
<title>api_pre</title>
<polygon fill="#f7f9fa" stroke="none" points="200,-284 200,-444 382,-444 382,-284 200,-284"/>
<polygon fill="#495a63" stroke="none" points="201,-409 201,-443 381,-443 381,-409 201,-409"/>
<text text-anchor="start" x="226.5" y="-422.7" font-family="Helvetica Neue,Arial,Helvetica,sans-serif" font-weight="bold" font-size="14.00" fill="white">API Pre&#45;processing</text>
<text text-anchor="start" x="209" y="-389.6" font-family="Helvetica Neue,Arial,Helvetica,sans-serif" font-size="12.00">Router</text>
<text text-anchor="start" x="209" y="-358.6" font-family="Helvetica Neue,Arial,Helvetica,sans-serif" font-size="12.00">Retrieval Gate</text>
<text text-anchor="start" x="209" y="-327.6" font-family="Helvetica Neue,Arial,Helvetica,sans-serif" font-size="12.00">Session Isolation</text>
<text text-anchor="start" x="209" y="-296.6" font-family="Helvetica Neue,Arial,Helvetica,sans-serif" font-size="12.00">Intent Routing</text>
<polygon fill="none" stroke="#7b8c97" points="200,-284 200,-444 382,-444 382,-284 200,-284"/>
</g>
<!-- pipeline -->
<g id="node3" class="node">
<title>pipeline</title>
<polygon fill="#eaf2ed" stroke="none" points="522,-262 522,-466 1002,-466 1002,-262 522,-262"/>
<polygon fill="#495a63" stroke="none" points="529,-421 529,-459 995,-459 995,-421 529,-421"/>
<text text-anchor="start" x="657.38" y="-436.7" font-family="Helvetica Neue,Arial,Helvetica,sans-serif" font-weight="bold" font-size="14.00" fill="white">N8N 9&#45;Stage Coaching Pipeline</text>
<polygon fill="#f8faf8" stroke="none" points="529,-384 529,-415 679,-415 679,-384 529,-384"/>
<text text-anchor="start" x="551.12" y="-395.6" font-family="Helvetica Neue,Arial,Helvetica,sans-serif" font-size="12.00">Input Normalization</text>
<polygon fill="#f8faf8" stroke="none" points="685,-384 685,-415 835,-415 835,-384 685,-384"/>
<text text-anchor="start" x="709.75" y="-395.6" font-family="Helvetica Neue,Arial,Helvetica,sans-serif" font-size="12.00">Context Extraction</text>
<polygon fill="#f8faf8" stroke="none" points="841,-384 841,-415 995,-415 995,-384 841,-384"/>
<text text-anchor="start" x="849" y="-395.6" font-family="Helvetica Neue,Arial,Helvetica,sans-serif" font-size="12.00">Personality State Loading</text>
<polygon fill="#f8faf8" stroke="none" points="529,-347 529,-378 679,-378 679,-347 529,-347"/>
<text text-anchor="start" x="555.25" y="-358.6" font-family="Helvetica Neue,Arial,Helvetica,sans-serif" font-size="12.00">OCEAN Detection</text>
<polygon fill="#f8faf8" stroke="none" points="685,-347 685,-378 835,-378 835,-347 685,-347"/>
<text text-anchor="start" x="712.38" y="-358.6" font-family="Helvetica Neue,Arial,Helvetica,sans-serif" font-size="12.00">EMA Stabilization</text>
<polygon fill="#f8faf8" stroke="none" points="841,-347 841,-378 995,-378 995,-347 841,-347"/>
<text text-anchor="start" x="888.75" y="-358.6" font-family="Helvetica Neue,Arial,Helvetica,sans-serif" font-size="12.00">Regulation</text>
<polygon fill="#f8faf8" stroke="none" points="529,-310 529,-341 679,-341 679,-310 529,-310"/>
<text text-anchor="start" x="562" y="-321.6" font-family="Helvetica Neue,Arial,Helvetica,sans-serif" font-size="12.00">Policy Retrieval</text>
<polygon fill="#f8faf8" stroke="none" points="685,-310 685,-341 835,-341 835,-310 685,-310"/>
<text text-anchor="start" x="701.5" y="-321.6" font-family="Helvetica Neue,Arial,Helvetica,sans-serif" font-size="12.00">Response Generation</text>
<polygon fill="#f8faf8" stroke="none" points="841,-310 841,-341 995,-341 995,-310 841,-310"/>
<text text-anchor="start" x="858.75" y="-321.6" font-family="Helvetica Neue,Arial,Helvetica,sans-serif" font-size="12.00">Grounding Verification</text>
<polygon fill="#dce8e1" stroke="none" points="529,-269 529,-304 995,-304 995,-269 529,-269"/>
<text text-anchor="start" x="728.25" y="-283.6" font-family="Helvetica Neue,Arial,Helvetica,sans-serif" font-weight="bold" font-size="12.00">Persistence</text>
<polygon fill="none" stroke="#7b9a8b" points="522,-262 522,-466 1002,-466 1002,-262 522,-262"/>
</g>
<!-- api_post -->
<g id="node4" class="node">
<title>api_post</title>
<polygon fill="#f7f9fa" stroke="none" points="1042,-284 1042,-444 1224,-444 1224,-284 1042,-284"/>
<polygon fill="#495a63" stroke="none" points="1043,-409 1043,-443 1223,-443 1223,-409 1043,-409"/>
<text text-anchor="start" x="1064.75" y="-422.7" font-family="Helvetica Neue,Arial,Helvetica,sans-serif" font-weight="bold" font-size="14.00" fill="white">API Post&#45;processing</text>
<text text-anchor="start" x="1051" y="-389.6" font-family="Helvetica Neue,Arial,Helvetica,sans-serif" font-size="12.00">citation overlay</text>
<text text-anchor="start" x="1051" y="-358.6" font-family="Helvetica Neue,Arial,Helvetica,sans-serif" font-size="12.00">grounding check</text>
<text text-anchor="start" x="1051" y="-327.6" font-family="Helvetica Neue,Arial,Helvetica,sans-serif" font-size="12.00">mode override</text>
<text text-anchor="start" x="1051" y="-296.6" font-family="Helvetica Neue,Arial,Helvetica,sans-serif" font-size="12.00">audit logging</text>
<polygon fill="none" stroke="#7b8c97" points="1042,-284 1042,-444 1224,-444 1224,-284 1042,-284"/>
</g>
<!-- client_response -->
<g id="node5" class="node">
<title>client_response</title>
<polygon fill="#f8fafa" stroke="none" points="1264.25,-346 1264.25,-382 1391.75,-382 1391.75,-346 1264.25,-346"/>
<text text-anchor="start" x="1273.25" y="-360.7" font-family="Helvetica Neue,Arial,Helvetica,sans-serif" font-weight="bold" font-size="14.00">Client Response</text>
<polygon fill="none" stroke="#9aa8b0" points="1264.25,-346 1264.25,-382 1391.75,-382 1391.75,-346 1264.25,-346"/>
</g>
<!-- flow_note -->
<g id="node6" class="node">
<title>flow_note</title>
<polygon fill="#fafbfb" stroke="none" points="422.12,-273 422.12,-455 481.88,-455 481.88,-273 422.12,-273"/>
<text text-anchor="start" x="438.5" y="-437.6" font-family="Helvetica Neue,Arial,Helvetica,sans-serif" font-weight="bold" font-size="12.00">Flow</text>
<text text-anchor="start" x="435.5" y="-410.55" font-family="Helvetica Neue,Arial,Helvetica,sans-serif" font-size="11.00">Detect</text>
<text text-anchor="start" x="440" y="-385.05" font-family="Helvetica Neue,Arial,Helvetica,sans-serif" font-size="11.00">EMA</text>
<text text-anchor="start" x="430.25" y="-359.55" font-family="Helvetica Neue,Arial,Helvetica,sans-serif" font-size="11.00">Regulate</text>
<text text-anchor="start" x="431.75" y="-334.05" font-family="Helvetica Neue,Arial,Helvetica,sans-serif" font-size="11.00">Retrieve</text>
<text text-anchor="start" x="429.12" y="-308.55" font-family="Helvetica Neue,Arial,Helvetica,sans-serif" font-size="11.00">Generate</text>
<text text-anchor="start" x="438.88" y="-283.05" font-family="Helvetica Neue,Arial,Helvetica,sans-serif" font-size="11.00">Verify</text>
<polygon fill="none" stroke="#a7b2b8" points="422.12,-273 422.12,-455 481.88,-455 481.88,-273 422.12,-273"/>
</g>
<!-- db -->
<g id="node7" class="node">
<title>db</title>
<polygon fill="#fbf9f4" stroke="none" points="802,-26 802,-217 974,-217 974,-26 802,-26"/>
<polygon fill="#e7dece" stroke="none" points="803,-182 803,-216 973,-216 973,-182 803,-182"/>
<text text-anchor="start" x="861.75" y="-195.7" font-family="Helvetica Neue,Arial,Helvetica,sans-serif" font-weight="bold" font-size="14.00">Storage</text>
<text text-anchor="start" x="811" y="-162.6" font-family="Helvetica Neue,Arial,Helvetica,sans-serif" font-size="12.00">PostgreSQL + pgvector</text>
<text text-anchor="start" x="811" y="-131.6" font-family="Helvetica Neue,Arial,Helvetica,sans-serif" font-size="12.00">sessions</text>
<text text-anchor="start" x="811" y="-100.6" font-family="Helvetica Neue,Arial,Helvetica,sans-serif" font-size="12.00">personality states</text>
<text text-anchor="start" x="811" y="-69.6" font-family="Helvetica Neue,Arial,Helvetica,sans-serif" font-size="12.00">policy evidence</text>
<text text-anchor="start" x="811" y="-38.6" font-family="Helvetica Neue,Arial,Helvetica,sans-serif" font-size="12.00">audit logs</text>
<polygon fill="none" stroke="#b3a892" points="802,-26 802,-217 974,-217 974,-26 802,-26"/>
</g>
<!-- llm -->
<g id="node8" class="node">
<title>llm</title>
<polygon fill="#fbf9f4" stroke="none" points="550,-72.5 550,-170.5 722,-170.5 722,-72.5 550,-72.5"/>
<polygon fill="#e7dece" stroke="none" points="551,-135.5 551,-169.5 721,-169.5 721,-135.5 551,-135.5"/>
<text text-anchor="start" x="594.38" y="-149.2" font-family="Helvetica Neue,Arial,Helvetica,sans-serif" font-weight="bold" font-size="14.00">LLM Service</text>
<text text-anchor="start" x="606.38" y="-116.1" font-family="Helvetica Neue,Arial,Helvetica,sans-serif" font-size="12.00">NVIDIA API</text>
<text text-anchor="start" x="595.12" y="-85.1" font-family="Helvetica Neue,Arial,Helvetica,sans-serif" font-size="12.00">Gemma&#45;3 LLM</text>
<polygon fill="none" stroke="#b3a892" points="550,-72.5 550,-170.5 722,-170.5 722,-72.5 550,-72.5"/>
</g>
<!-- left_pad -->
<!-- bottom_anchor -->
<!-- right_pad -->
</g>
</svg>
